<svg width="30" height="28" viewBox="0 0 30 28" fill="none" xmlns="http://www.w3.org/2000/svg">
<g filter="url(#filter0_d_242_237)">
<path d="M23 15V18H26V20H23V23H21V20H18V18H21V15H23ZM23.008 3C23.556 3 24 3.445 24 3.993V13H22V5H6V18.999L16 9L19 12V14.829L16 11.829L8.827 19H16V21H4.992C4.72881 20.9997 4.4765 20.895 4.29049 20.7088C4.10448 20.5226 4 20.2702 4 20.007V3.993C4.00183 3.73038 4.1069 3.47902 4.29251 3.29322C4.47813 3.10742 4.72938 3.00209 4.992 3H23.008ZM10 7C10.5304 7 11.0391 7.21071 11.4142 7.58579C11.7893 7.96086 12 8.46957 12 9C12 9.53043 11.7893 10.0391 11.4142 10.4142C11.0391 10.7893 10.5304 11 10 11C9.46957 11 8.96086 10.7893 8.58579 10.4142C8.21071 10.0391 8 9.53043 8 9C8 8.46957 8.21071 7.96086 8.58579 7.58579C8.96086 7.21071 9.46957 7 10 7Z" fill="black"/>
</g>
<defs>
<filter id="filter0_d_242_237" x="-2" y="-3" width="32" height="32" filterUnits="userSpaceOnUse" color-interpolation-filters="sRGB">
<feFlood flood-opacity="0" result="BackgroundImageFix"/>
<feColorMatrix in="SourceAlpha" type="matrix" values="0 0 0 0 0 0 0 0 0 0 0 0 0 0 0 0 0 0 127 0" result="hardAlpha"/>
<feOffset dy="1"/>
<feGaussianBlur stdDeviation="2"/>
<feComposite in2="hardAlpha" operator="out"/>
<feColorMatrix type="matrix" values="0 0 0 0 0 0 0 0 0 0 0 0 0 0 0 0 0 0 0.1 0"/>
<feBlend mode="normal" in2="BackgroundImageFix" result="effect1_dropShadow_242_237"/>
<feBlend mode="normal" in="SourceGraphic" in2="effect1_dropShadow_242_237" result="shape"/>
</filter>
</defs>
</svg>
