<svg width="32" height="31" viewBox="0 0 32 31" fill="none" xmlns="http://www.w3.org/2000/svg">
<g filter="url(#filter0_d_242_241)">
<path d="M27.1268 6.39188L25.0793 4.34719C24.8679 4.13578 24.5899 4.02985 24.3124 4.02985C24.0349 4.02985 23.7574 4.13531 23.546 4.34672L21.9082 5.97985L25.489 9.55453L27.1268 7.92188C27.5501 7.49906 27.5501 6.81328 27.1268 6.39188Z" fill="black"/>
<path d="M11.2764 16.5919L14.8576 20.167L24.7225 10.3205L21.1412 6.7453L11.2764 16.5919Z" fill="black"/>
<path d="M10.5033 17.3569L9.73877 21.6937L14.0846 20.9316L10.5033 17.3569Z" fill="black"/>
<path d="M20.4032 23.6264H6.90037V10.1236H16.4296L18.778 7.77985H6.07209C5.23818 7.77985 4.55615 8.46188 4.55615 9.29578V24.4547C4.55615 25.2886 5.23818 25.9706 6.07209 25.9706H21.231C22.0649 25.9706 22.7469 25.2886 22.7469 24.4547V13.6167L20.4032 15.9563V23.6264Z" fill="black"/>
</g>
<defs>
<filter id="filter0_d_242_241" x="-3" y="-3" width="38" height="38" filterUnits="userSpaceOnUse" color-interpolation-filters="sRGB">
<feFlood flood-opacity="0" result="BackgroundImageFix"/>
<feColorMatrix in="SourceAlpha" type="matrix" values="0 0 0 0 0 0 0 0 0 0 0 0 0 0 0 0 0 0 127 0" result="hardAlpha"/>
<feOffset dy="1"/>
<feGaussianBlur stdDeviation="2"/>
<feComposite in2="hardAlpha" operator="out"/>
<feColorMatrix type="matrix" values="0 0 0 0 0 0 0 0 0 0 0 0 0 0 0 0 0 0 0.1 0"/>
<feBlend mode="normal" in2="BackgroundImageFix" result="effect1_dropShadow_242_241"/>
<feBlend mode="normal" in="SourceGraphic" in2="effect1_dropShadow_242_241" result="shape"/>
</filter>
</defs>
</svg>
