<svg width="577" height="494" viewBox="0 0 577 494" fill="none" xmlns="http://www.w3.org/2000/svg">
<g clip-path="url(#clip0_2_441)">
<path d="M169.422 488.35C178.677 480.53 184.298 468.177 182.822 456.15C181.346 444.123 172.217 433.068 160.373 430.514C148.529 427.96 135.028 435.03 131.43 446.599C129.45 424.293 127.169 401.052 115.31 382.057C104.572 364.857 85.9729 352.55 65.8159 350.348C45.6589 348.146 24.4359 356.462 11.8649 372.372C-0.706135 388.282 -3.78414 411.411 5.01986 429.672C11.5059 443.128 23.4559 453.142 35.9759 461.288C76.4329 487.392 124.956 498.007 172.617 491.181" fill="#F2F2F2"/>
<path d="M31.7999 356.924C74.5358 391.792 107.84 436.826 128.662 487.9C129.586 490.164 125.909 491.15 124.996 488.911C104.335 438.479 71.3708 394.026 29.112 359.611C27.213 358.067 29.9169 355.391 31.7999 356.924Z" fill="white"/>
<path d="M175.815 488.35C166.56 480.53 160.939 468.177 162.415 456.15C163.891 444.123 173.02 433.068 184.864 430.514C196.708 427.96 210.209 435.03 213.807 446.599C215.787 424.293 218.068 401.052 229.927 382.057C240.665 364.857 259.264 352.55 279.421 350.348C299.578 348.146 320.801 356.462 333.372 372.372C345.943 388.282 349.021 411.411 340.217 429.672C333.731 443.128 321.781 453.142 309.261 461.288C268.804 487.392 220.281 498.007 172.62 491.181" fill="#F2F2F2"/>
<path d="M313.437 356.924C270.701 391.792 237.397 436.826 216.575 487.9C215.651 490.164 219.327 491.15 220.241 488.911C240.891 438.473 273.858 394.018 316.126 359.611C318.026 358.066 315.32 355.39 313.438 356.923L313.437 356.924Z" fill="white"/>
<path d="M203.277 222C220.398 222 234.277 208.121 234.277 191C234.277 173.879 220.398 160 203.277 160C186.156 160 172.277 173.879 172.277 191C172.277 208.121 186.156 222 203.277 222Z" fill="#F2F2F2"/>
<path d="M107.696 84.138H321.277V95.823H134.961C124.006 95.8229 113.159 97.9805 103.038 102.173C92.9168 106.365 83.7207 112.509 75.9745 120.256C68.2284 128.002 62.0838 137.198 57.8916 147.319C53.6995 157.44 51.5418 168.287 51.542 179.242V312H28.172C27.1385 312 26.1473 311.59 25.416 310.859C24.6848 310.129 24.2733 309.138 24.272 308.105V167.556C24.272 156.601 26.4297 145.754 30.6219 135.633C34.8141 125.512 40.9587 116.316 48.7049 108.57C56.4511 100.824 65.6471 94.6796 75.768 90.4875C85.8888 86.2954 96.7363 84.1379 107.691 84.138H107.696Z" fill="#F2F2F2"/>
<path d="M148.777 489V311.5H200.777V489C200.776 490.193 200.301 491.337 199.458 492.181C198.614 493.024 197.47 493.499 196.277 493.5H153.277C152.084 493.499 150.94 493.024 150.097 492.181C149.253 491.337 148.778 490.193 148.777 489V489Z" fill="#3F3D56"/>
<path d="M13.2771 308V163.666C13.3028 140.689 22.4417 118.66 38.689 102.413C54.9362 86.1652 76.9649 77.0259 99.9421 77H320.277V313H18.2771C16.9515 312.998 15.6807 312.471 14.7433 311.534C13.806 310.596 13.2787 309.326 13.2771 308V308ZM318.277 79H99.9421C77.4951 79.0254 55.9749 87.9538 40.1026 103.826C24.2303 119.699 15.3022 141.219 15.2771 163.666V308C15.2771 308.796 15.5932 309.559 16.1558 310.121C16.7184 310.684 17.4815 311 18.2771 311H318.277V79Z" fill="#3F3D56"/>
<path d="M203.277 207C198.505 206.995 193.93 205.097 190.555 201.722C187.181 198.348 185.282 193.772 185.277 189V60C185.277 59.2044 184.961 58.4413 184.398 57.8787C183.836 57.3161 183.073 57 182.277 57H112.277C110.952 56.9984 109.681 56.4711 108.743 55.5338C107.806 54.5964 107.279 53.3256 107.277 52V5C107.279 3.6744 107.806 2.40355 108.743 1.46622C109.681 0.528879 110.952 0.00158786 112.277 0H216.277C217.603 0.00158786 218.874 0.528879 219.811 1.46622C220.748 2.40355 221.275 3.6744 221.277 5V189C221.272 193.772 219.374 198.348 215.999 201.722C212.625 205.097 208.049 206.995 203.277 207V207Z" fill="#8924BF"/>
<path d="M328.277 75C343.362 74.9684 357.843 80.9308 368.532 91.5755C379.222 102.22 385.245 116.675 385.277 131.761V296.071H497.277C501.776 296.062 506.095 297.84 509.283 301.015C512.471 304.19 514.267 308.501 514.277 313H271.277V131.761C271.309 116.675 277.332 102.22 288.021 91.5755C298.711 80.9308 313.191 74.9684 328.277 75V75Z" fill="#3F3D56"/>
<path d="M314.599 168.568L326.399 217.324L557.28 161.432L545.48 112.676C545.338 112.079 545.048 111.527 544.635 111.073C544.223 110.618 543.703 110.275 543.122 110.076C542.694 109.926 542.241 109.858 541.788 109.876L408.329 40.776C407.547 40.3767 406.648 40.27 405.794 40.4752C404.941 40.6804 404.188 41.184 403.673 41.895L339.35 131.591L315.102 165.414C315.058 165.473 315.027 165.541 315.012 165.613C314.997 165.685 314.997 165.76 315.013 165.832C314.52 166.653 314.37 167.636 314.596 168.567L314.599 168.568Z" fill="white"/>
<path d="M315.016 165.832C315.038 165.96 315.11 166.073 315.216 166.148C315.278 166.191 315.349 166.221 315.424 166.236C315.498 166.25 315.575 166.25 315.649 166.234C315.77 166.202 315.876 166.129 315.949 166.027L316.032 165.912L317.295 164.146L340.224 132.182L404.524 42.509C404.89 42.0003 405.427 41.6397 406.037 41.493C406.646 41.3462 407.288 41.4228 407.846 41.709L540.271 110.276L541.459 110.893C541.507 110.913 541.556 110.931 541.606 110.945C541.695 110.929 541.786 110.92 541.877 110.919C542.001 110.877 542.105 110.79 542.167 110.674C542.199 110.613 542.219 110.546 542.226 110.478C542.232 110.409 542.225 110.34 542.205 110.274C542.184 110.208 542.151 110.147 542.107 110.094C542.063 110.041 542.009 109.997 541.948 109.965L541.784 109.878L408.325 40.778C407.543 40.3787 406.644 40.2721 405.79 40.4773C404.936 40.6824 404.184 41.186 403.669 41.897L339.35 131.591L315.102 165.414C315.058 165.473 315.028 165.542 315.013 165.614C314.999 165.686 314.999 165.76 315.016 165.832V165.832Z" fill="#3F3D56"/>
<path d="M384.357 170.804L389.496 171.374L427.639 175.599L452.925 178.399L454.419 178.565L485.971 153.92L487.18 152.976L494.632 147.156L521.15 126.45L521.309 124.996L530.739 39.882C530.867 38.7101 530.526 37.5351 529.789 36.6145C529.053 35.694 527.982 35.1029 526.81 34.971L400.95 21.028C399.778 20.8999 398.603 21.2414 397.682 21.9778C396.762 22.7143 396.17 23.7855 396.038 24.957L389.388 84.995L385.699 118.281L382.399 148.059L380.869 161.888L380.423 165.894C380.296 167.066 380.638 168.241 381.376 169.162C382.113 170.082 383.185 170.672 384.357 170.804V170.804Z" fill="#E6E6E6"/>
<path d="M418.942 96.198L473.459 102.236L492.793 104.377C493.651 104.48 494.52 104.411 495.351 104.176C496.182 103.941 496.958 103.543 497.634 103.006C498.311 102.47 498.874 101.804 499.292 101.048C499.71 100.293 499.975 99.4616 500.07 98.6032C500.165 97.7449 500.089 96.8762 499.846 96.0473C499.604 95.2185 499.2 94.4458 498.657 93.774C498.114 93.1021 497.444 92.5444 496.685 92.133C495.926 91.7216 495.092 91.4647 494.233 91.377L470.186 88.714L420.386 83.192C418.665 83.0072 416.94 83.5121 415.591 84.5961C414.241 85.6801 413.376 87.2549 413.185 88.9756C412.993 90.6962 413.492 92.4225 414.571 93.7762C415.651 95.1299 417.222 96.0008 418.942 96.198Z" fill="white"/>
<path d="M415.838 120.314C415.979 120.339 416.119 120.364 416.263 120.378L479.548 127.389L490.114 128.562C490.968 128.656 491.832 128.582 492.657 128.342C493.482 128.103 494.252 127.703 494.923 127.166C495.593 126.629 496.152 125.965 496.566 125.213C496.98 124.46 497.241 123.633 497.336 122.779C497.43 121.925 497.356 121.061 497.116 120.236C496.877 119.411 496.477 118.641 495.94 117.97C495.403 117.3 494.739 116.741 493.987 116.327C493.234 115.913 492.407 115.651 491.553 115.557L476.275 113.867L426.145 108.312L417.709 107.377C416.021 107.187 414.326 107.662 412.982 108.7C411.637 109.738 410.75 111.259 410.507 112.94C410.264 114.621 410.685 116.33 411.68 117.706C412.675 119.083 414.167 120.018 415.839 120.314H415.838Z" fill="white"/>
<path d="M408.676 141.698C409.195 142.559 409.905 143.289 410.751 143.831C411.597 144.373 412.557 144.712 413.556 144.823L439.495 147.696L485.695 152.814H485.705L487.182 152.979L494.634 147.159C494.68 146.717 494.68 146.271 494.634 145.829C494.477 144.344 493.818 142.958 492.765 141.899C491.713 140.84 490.331 140.172 488.847 140.005L482.43 139.292L456.973 136.475L438.65 134.44L414.99 131.818C413.778 131.684 412.552 131.891 411.451 132.417C410.35 132.943 409.419 133.767 408.761 134.794C408.104 135.822 407.747 137.013 407.731 138.233C407.715 139.453 408.041 140.653 408.671 141.697L408.676 141.698Z" fill="white"/>
<path d="M445.109 66.72L458.673 68.22L464.664 68.885L473.714 69.885C475.439 70.0758 477.168 69.5738 478.523 68.4892C479.877 67.4047 480.745 65.8266 480.936 64.102C481.127 62.3774 480.625 60.6477 479.54 59.2933C478.456 57.9389 476.878 57.0708 475.153 56.88L446.553 53.715C445.692 53.6042 444.817 53.6661 443.98 53.8969C443.143 54.1278 442.36 54.5231 441.677 55.0598C440.994 55.5964 440.425 56.2636 440.003 57.0225C439.581 57.7814 439.314 58.6168 439.218 59.48C439.122 60.3431 439.199 61.2167 439.444 62.0498C439.689 62.8829 440.098 63.6588 440.646 64.3323C441.195 65.0058 441.872 65.5633 442.638 65.9724C443.404 66.3815 444.243 66.6339 445.108 66.715L445.109 66.72Z" fill="white"/>
<path d="M334.194 102.932L350.731 171.25L378.331 176.498L403.863 181.359L431.257 186.571L440.01 188.237C440.522 188.334 441.05 188.32 441.557 188.198C442.064 188.075 442.539 187.846 442.95 187.525L449.972 182.041L454.418 178.569L485.97 153.924L465.909 71.05C465.711 70.2255 465.279 69.4758 464.665 68.891C464.126 68.3735 463.466 68 462.745 67.8048C462.024 67.6096 461.266 67.599 460.54 67.774L337.47 97.563C336.324 97.8412 335.335 98.5629 334.721 99.5696C334.107 100.576 333.917 101.786 334.194 102.932V102.932Z" fill="#8924BF"/>
<path d="M372.114 157.278C372.523 158.964 373.585 160.419 375.067 161.322C376.548 162.226 378.328 162.504 380.014 162.096L452.228 144.614C453.914 144.204 455.367 143.141 456.271 141.66C457.174 140.179 457.453 138.4 457.046 136.714C457.028 136.63 457.004 136.548 456.976 136.467C456.515 134.842 455.442 133.458 453.984 132.606C452.525 131.754 450.793 131.5 449.151 131.896L376.937 149.378C375.251 149.787 373.796 150.849 372.893 152.331C371.989 153.812 371.711 155.592 372.119 157.278H372.114Z" fill="white"/>
<path d="M378.332 176.494L403.864 181.355L457.95 168.262C459.62 167.839 461.056 166.774 461.946 165.299C462.835 163.823 463.107 162.057 462.702 160.382C462.296 158.708 461.247 157.261 459.781 156.355C458.315 155.45 456.551 155.16 454.872 155.548L382.657 173.03C381.148 173.392 379.819 174.283 378.91 175.541C378.691 175.842 378.498 176.161 378.333 176.494H378.332Z" fill="white"/>
<path d="M431.258 186.567L440.011 188.233C440.524 188.33 441.051 188.316 441.558 188.194C442.065 188.071 442.54 187.842 442.951 187.521L449.973 182.037L431.258 186.567Z" fill="white"/>
<path d="M386.665 120.65C387.074 122.336 388.136 123.791 389.618 124.694C391.099 125.598 392.879 125.876 394.565 125.468L422.535 118.697C424.22 118.287 425.674 117.224 426.578 115.743C427.481 114.262 427.76 112.483 427.353 110.797C427.137 109.892 426.727 109.044 426.153 108.311C425.379 107.321 424.337 106.575 423.15 106.161C421.964 105.748 420.683 105.684 419.462 105.979L391.483 112.75C390.648 112.952 389.861 113.317 389.166 113.823C388.472 114.33 387.885 114.968 387.437 115.702C386.99 116.435 386.691 117.25 386.559 118.099C386.426 118.948 386.462 119.815 386.665 120.65Z" fill="white"/>
<path d="M403.862 181.35L431.262 186.564L440.012 188.23C440.524 188.326 441.051 188.312 441.557 188.189C442.064 188.067 442.538 187.838 442.95 187.519L449.977 182.033L447.511 182.633L442.305 186.694C442.011 186.922 441.672 187.086 441.31 187.173C440.948 187.261 440.571 187.271 440.205 187.202L433.726 185.97L406.326 180.756L403.862 181.35ZM485.7 152.811L485.967 153.911L487.182 152.966L485.7 152.811ZM403.862 181.35L431.262 186.564L440.012 188.23C440.524 188.326 441.051 188.312 441.557 188.189C442.064 188.067 442.538 187.838 442.95 187.519L449.977 182.033L447.511 182.633L442.305 186.694C442.011 186.922 441.672 187.086 441.31 187.173C440.948 187.261 440.571 187.271 440.205 187.202L433.726 185.97L406.326 180.756L403.862 181.35ZM403.862 181.35L431.262 186.564L440.012 188.23C440.524 188.326 441.051 188.312 441.557 188.189C442.064 188.067 442.538 187.838 442.95 187.519L449.977 182.033L447.511 182.633L442.305 186.694C442.011 186.922 441.672 187.086 441.31 187.173C440.948 187.261 440.571 187.271 440.205 187.202L433.726 185.97L406.326 180.756L403.862 181.35ZM314.599 168.563L345.515 296.273C345.744 297.217 346.339 298.031 347.168 298.538C347.997 299.044 348.993 299.2 349.937 298.973L573.698 244.805C574.642 244.576 575.457 243.982 575.963 243.153C576.469 242.324 576.626 241.327 576.398 240.383L545.48 112.676C545.338 112.079 545.048 111.527 544.635 111.073C544.223 110.618 543.703 110.275 543.122 110.076C542.694 109.926 542.241 109.858 541.788 109.876C541.259 109.892 540.742 110.029 540.274 110.276C540.058 110.378 539.855 110.505 539.667 110.653L521.303 124.993L494.633 145.826L485.698 152.805V152.813H485.69L452.924 178.391L447.507 182.63L442.301 186.691C442.007 186.919 441.667 187.082 441.305 187.17C440.944 187.258 440.567 187.267 440.201 187.199L433.722 185.967L406.322 180.753L378.9 175.537L318.839 164.107C318.327 164.005 317.799 164.017 317.292 164.14C316.609 164.307 315.989 164.667 315.504 165.176C315.319 165.376 315.153 165.594 315.011 165.827C314.518 166.651 314.37 167.636 314.599 168.568V168.563ZM403.862 181.35L431.262 186.564L440.012 188.23C440.524 188.326 441.051 188.312 441.557 188.189C442.064 188.067 442.538 187.838 442.95 187.519L449.977 182.033L447.511 182.633L442.305 186.694C442.011 186.922 441.672 187.086 441.31 187.173C440.948 187.261 440.571 187.271 440.205 187.202L433.726 185.97L406.326 180.756L403.862 181.35ZM403.862 181.35L431.262 186.564L440.012 188.23C440.524 188.326 441.051 188.312 441.557 188.189C442.064 188.067 442.538 187.838 442.95 187.519L449.977 182.033L447.511 182.633L442.305 186.694C442.011 186.922 441.672 187.086 441.31 187.173C440.948 187.261 440.571 187.271 440.205 187.202L433.726 185.97L406.326 180.756L403.862 181.35ZM403.862 181.35L431.262 186.564L440.012 188.23C440.524 188.326 441.051 188.312 441.557 188.189C442.064 188.067 442.538 187.838 442.95 187.519L449.977 182.033L447.511 182.633L442.305 186.694C442.011 186.922 441.672 187.086 441.31 187.173C440.948 187.261 440.571 187.271 440.205 187.202L433.726 185.97L406.326 180.756L403.862 181.35Z" fill="white"/>
<path d="M403.862 181.35L431.262 186.564L440.012 188.23C440.524 188.326 441.051 188.312 441.557 188.189C442.064 188.067 442.538 187.838 442.95 187.519L449.977 182.033L447.511 182.633L442.305 186.694C442.011 186.922 441.672 187.086 441.31 187.173C440.948 187.261 440.571 187.271 440.205 187.202L433.726 185.97L406.326 180.756L403.862 181.35ZM485.7 152.811L485.967 153.911L487.182 152.966L485.7 152.811ZM403.862 181.35L431.262 186.564L440.012 188.23C440.524 188.326 441.051 188.312 441.557 188.189C442.064 188.067 442.538 187.838 442.95 187.519L449.977 182.033L447.511 182.633L442.305 186.694C442.011 186.922 441.672 187.086 441.31 187.173C440.948 187.261 440.571 187.271 440.205 187.202L433.726 185.97L406.326 180.756L403.862 181.35ZM403.862 181.35L431.262 186.564L440.012 188.23C440.524 188.326 441.051 188.312 441.557 188.189C442.064 188.067 442.538 187.838 442.95 187.519L449.977 182.033L447.511 182.633L442.305 186.694C442.011 186.922 441.672 187.086 441.31 187.173C440.948 187.261 440.571 187.271 440.205 187.202L433.726 185.97L406.326 180.756L403.862 181.35ZM316.035 165.907L316.171 166.007C316.194 165.97 316.233 165.936 316.263 165.897C316.566 165.582 316.943 165.346 317.359 165.212C317.775 165.078 318.218 165.05 318.648 165.129L378.334 176.483L403.862 181.348L431.262 186.562L440.012 188.228C440.524 188.324 441.051 188.31 441.557 188.187C442.064 188.065 442.538 187.836 442.95 187.517L449.977 182.031L447.511 182.631L442.305 186.692C442.011 186.92 441.672 187.083 441.31 187.171C440.948 187.259 440.571 187.268 440.205 187.2L433.726 185.968L406.326 180.754L378.904 175.538L318.843 164.108C318.331 164.006 317.803 164.018 317.296 164.141L316.035 165.907ZM314.599 168.564L345.515 296.274C345.744 297.218 346.339 298.032 347.168 298.539C347.997 299.045 348.993 299.201 349.937 298.974L573.698 244.806C574.642 244.577 575.457 243.983 575.963 243.154C576.469 242.325 576.626 241.328 576.398 240.384L545.48 112.676C545.338 112.079 545.048 111.527 544.635 111.073C544.223 110.618 543.703 110.275 543.122 110.076C542.694 109.926 542.241 109.858 541.788 109.876C541.26 109.892 540.742 110.029 540.274 110.276C540.058 110.378 539.855 110.505 539.667 110.653L521.303 124.993L494.633 145.826L485.698 152.805V152.813H485.69L452.924 178.391L447.507 182.63L442.301 186.691C442.007 186.919 441.668 187.082 441.306 187.17C440.944 187.258 440.567 187.267 440.201 187.199L433.722 185.967L406.322 180.753L378.9 175.537L318.839 164.107C318.327 164.005 317.799 164.017 317.292 164.14C316.609 164.307 315.989 164.667 315.504 165.176C315.319 165.376 315.153 165.594 315.011 165.827C314.518 166.648 314.368 167.631 314.594 168.562L314.599 168.564ZM315.619 168.317C315.528 167.941 315.522 167.548 315.602 167.169C315.681 166.79 315.845 166.434 316.08 166.126C316.102 166.081 316.133 166.041 316.171 166.009C316.194 165.972 316.233 165.938 316.263 165.899C316.566 165.584 316.943 165.348 317.359 165.214C317.775 165.08 318.218 165.052 318.648 165.131L378.334 176.485L403.862 181.35L431.262 186.564L440.012 188.23C440.524 188.326 441.051 188.312 441.557 188.189C442.064 188.067 442.538 187.838 442.95 187.519L449.977 182.033L454.421 178.561L485.968 153.913L487.183 152.968L494.63 147.151L521.15 126.45L540.321 111.478C540.612 111.251 540.949 111.088 541.308 111.001C541.408 110.976 541.51 110.96 541.613 110.951C541.703 110.935 541.793 110.926 541.884 110.925C542.19 110.922 542.495 110.972 542.784 111.072C543.197 111.216 543.568 111.461 543.862 111.784C544.157 112.108 544.366 112.5 544.47 112.925L575.386 240.635C575.467 240.97 575.482 241.317 575.429 241.657C575.376 241.997 575.256 242.324 575.077 242.618C574.897 242.912 574.662 243.167 574.384 243.37C574.105 243.573 573.79 243.719 573.455 243.8L349.692 297.964C349.017 298.126 348.305 298.014 347.713 297.651C347.121 297.289 346.698 296.706 346.535 296.031L315.619 168.317ZM403.862 181.35L431.262 186.564L440.012 188.23C440.524 188.326 441.051 188.312 441.557 188.189C442.064 188.067 442.538 187.838 442.95 187.519L449.977 182.033L447.511 182.633L442.305 186.694C442.011 186.922 441.672 187.086 441.31 187.173C440.948 187.261 440.571 187.271 440.205 187.202L433.726 185.97L406.326 180.756L403.862 181.35ZM403.862 181.35L431.262 186.564L440.012 188.23C440.524 188.326 441.051 188.312 441.557 188.189C442.064 188.067 442.538 187.838 442.95 187.519L449.977 182.033L447.511 182.633L442.305 186.694C442.011 186.922 441.672 187.086 441.31 187.173C440.948 187.261 440.571 187.271 440.205 187.202L433.726 185.97L406.326 180.756L403.862 181.35ZM403.862 181.35L431.262 186.564L440.012 188.23C440.524 188.326 441.051 188.312 441.557 188.189C442.064 188.067 442.538 187.838 442.95 187.519L449.977 182.033L447.511 182.633L442.305 186.694C442.011 186.922 441.672 187.086 441.31 187.173C440.948 187.261 440.571 187.271 440.205 187.202L433.726 185.97L406.326 180.756L403.862 181.35Z" fill="#3F3D56"/>
<path d="M515.379 219.717C514.875 217.624 515.222 215.418 516.343 213.58C517.465 211.743 519.269 210.426 521.36 209.917L549.602 203.08C550.641 202.822 551.72 202.772 552.778 202.933C553.836 203.094 554.852 203.463 555.767 204.017C556.682 204.572 557.478 205.302 558.11 206.166C558.742 207.03 559.197 208.01 559.449 209.05C559.7 210.09 559.744 211.17 559.577 212.227C559.41 213.284 559.036 214.297 558.476 215.209C557.916 216.121 557.181 216.913 556.314 217.54C555.446 218.167 554.464 218.616 553.422 218.862L525.18 225.699C523.087 226.203 520.88 225.856 519.043 224.735C517.205 223.613 515.888 221.809 515.379 219.717V219.717Z" fill="#8924BF"/>
<path d="M203.277 196C207.143 196 210.277 192.866 210.277 189C210.277 185.134 207.143 182 203.277 182C199.411 182 196.277 185.134 196.277 189C196.277 192.866 199.411 196 203.277 196Z" fill="white"/>
</g>
<defs>
<clipPath id="clip0_2_441">
<rect width="576.499" height="493.5" fill="white"/>
</clipPath>
</defs>
</svg>
