<svg xmlns="http://www.w3.org/2000/svg" width="447.698" height="447.018" viewBox="0 0 447.698 447.018">
  <g id="Group_53" data-name="Group 53" transform="translate(-1444.299 320.995)">
    <g id="Group_23" data-name="Group 23" transform="translate(1538.177 -317.518)">
      <path id="Intersection_1" data-name="Intersection 1" d="M7.77,0,44.715,9.9l7.313,7.842L0,28.224Z" transform="translate(169.002 22.946)" fill="#70c1eb"/>
      <path id="Polygon_27" data-name="Polygon 27" d="M27.816,0,55.631,45.2H0Z" transform="translate(263.852 152.886) rotate(-133)" fill="#33759c"/>
      <path id="Polygon_25" data-name="Polygon 25" d="M27.816,0,55.631,45.2H0Z" transform="translate(225.912 112.199) rotate(-133)" fill="#aadff7"/>
      <path id="Polygon_29" data-name="Polygon 29" d="M27.816,0,55.631,45.2H0Z" transform="translate(301.793 193.572) rotate(-133)" fill="#0f507b"/>
      <path id="Polygon_24" data-name="Polygon 24" d="M27.816,0,55.631,45.2H0Z" transform="translate(202.059 20.344) rotate(47)" fill="#8dd8ff"/>
      <path id="Polygon_28" data-name="Polygon 28" d="M27.816,0,55.631,45.2H0Z" transform="translate(277.94 101.716) rotate(47)" fill="#2579b1"/>
      <path id="Polygon_30" data-name="Polygon 30" d="M27.816,0,55.631,45.2H0Z" transform="translate(315.88 142.402) rotate(47)" fill="#0b4f89"/>
      <path id="Polygon_26" data-name="Polygon 26" d="M27.816,0,55.631,45.2H0Z" transform="translate(239.999 61.03) rotate(47)" fill="#67b4e2"/>
      <g id="Group_14" data-name="Group 14" transform="translate(183.088 0) rotate(47)">
        <path id="Polygon_23" data-name="Polygon 23" d="M27.816,0,55.631,45.2H0Z" transform="translate(45.201 194.71) rotate(90)" fill="#70c1eb"/>
        <path id="Polygon_27-2" data-name="Polygon 27" d="M27.816,0,55.631,45.2H0Z" transform="translate(45.201 83.447) rotate(90)" fill="#33759c"/>
        <path id="Polygon_25-2" data-name="Polygon 25" d="M27.816,0,55.631,45.2H0Z" transform="translate(45.201 139.078) rotate(90)" fill="#aadff7"/>
        <path id="Polygon_29-2" data-name="Polygon 29" d="M27.816,0,55.631,45.2H0Z" transform="translate(45.201 27.816) rotate(90)" fill="#0f507b"/>
        <path id="Polygon_24-2" data-name="Polygon 24" d="M27.816,0,55.631,45.2H0Z" transform="translate(0.001 222.525) rotate(-90)" fill="#8dd8ff"/>
        <path id="Subtraction_5" data-name="Subtraction 5" d="M27.816,45.2l0-.005L0,0H27.816V45.2Z" transform="translate(45.202 222.525) rotate(90)" fill="#a7e3fd"/>
        <path id="Polygon_28-2" data-name="Polygon 28" d="M27.816,0,55.631,45.2H0Z" transform="translate(0.001 111.263) rotate(-90)" fill="#2579b1"/>
        <path id="Polygon_30-2" data-name="Polygon 30" d="M27.816,0,55.631,45.2H0Z" transform="translate(0.001 55.631) rotate(-90)" fill="#0b4f89"/>
        <path id="Polygon_26-2" data-name="Polygon 26" d="M27.816,0,55.631,45.2H0Z" transform="translate(0.001 166.894) rotate(-90)" fill="#67b4e2"/>
      </g>
    </g>
    <g id="Group_24" data-name="Group 24" transform="translate(1447.256 32.825) rotate(-90)">
      <path id="Intersection_1-2" data-name="Intersection 1" d="M7.77,0,44.715,9.9l7.313,7.842L0,28.224Z" transform="translate(169.002 22.946)" fill="#70c1eb"/>
      <path id="Polygon_27-3" data-name="Polygon 27" d="M27.816,0,55.631,45.2H0Z" transform="translate(263.852 152.886) rotate(-133)" fill="#33759c"/>
      <path id="Polygon_25-3" data-name="Polygon 25" d="M27.816,0,55.631,45.2H0Z" transform="translate(225.912 112.199) rotate(-133)" fill="#aadff7"/>
      <path id="Polygon_29-3" data-name="Polygon 29" d="M27.816,0,55.631,45.2H0Z" transform="translate(301.793 193.572) rotate(-133)" fill="#0f507b"/>
      <path id="Polygon_24-3" data-name="Polygon 24" d="M27.816,0,55.631,45.2H0Z" transform="translate(202.059 20.344) rotate(47)" fill="#8dd8ff"/>
      <path id="Polygon_28-3" data-name="Polygon 28" d="M27.816,0,55.631,45.2H0Z" transform="translate(277.94 101.716) rotate(47)" fill="#2579b1"/>
      <path id="Polygon_30-3" data-name="Polygon 30" d="M27.816,0,55.631,45.2H0Z" transform="translate(315.88 142.402) rotate(47)" fill="#0b4f89"/>
      <path id="Polygon_26-3" data-name="Polygon 26" d="M27.816,0,55.631,45.2H0Z" transform="translate(239.999 61.03) rotate(47)" fill="#67b4e2"/>
      <g id="Group_14-2" data-name="Group 14" transform="translate(183.088 0) rotate(47)">
        <path id="Polygon_23-2" data-name="Polygon 23" d="M27.816,0,55.631,45.2H0Z" transform="translate(45.201 194.71) rotate(90)" fill="#70c1eb"/>
        <path id="Polygon_27-4" data-name="Polygon 27" d="M27.816,0,55.631,45.2H0Z" transform="translate(45.201 83.447) rotate(90)" fill="#33759c"/>
        <path id="Polygon_25-4" data-name="Polygon 25" d="M27.816,0,55.631,45.2H0Z" transform="translate(45.201 139.078) rotate(90)" fill="#aadff7"/>
        <path id="Polygon_29-4" data-name="Polygon 29" d="M27.816,0,55.631,45.2H0Z" transform="translate(45.201 27.816) rotate(90)" fill="#0f507b"/>
        <path id="Polygon_24-4" data-name="Polygon 24" d="M27.816,0,55.631,45.2H0Z" transform="translate(0.001 222.525) rotate(-90)" fill="#8dd8ff"/>
        <path id="Subtraction_5-2" data-name="Subtraction 5" d="M27.816,45.2l0-.005L0,0H27.816V45.2Z" transform="translate(45.202 222.525) rotate(90)" fill="#a7e3fd"/>
        <path id="Polygon_28-4" data-name="Polygon 28" d="M27.816,0,55.631,45.2H0Z" transform="translate(0.001 111.263) rotate(-90)" fill="#2579b1"/>
        <path id="Polygon_30-4" data-name="Polygon 30" d="M27.816,0,55.631,45.2H0Z" transform="translate(0.001 55.631) rotate(-90)" fill="#0b4f89"/>
        <path id="Polygon_26-4" data-name="Polygon 26" d="M27.816,0,55.631,45.2H0Z" transform="translate(0.001 166.894) rotate(-90)" fill="#67b4e2"/>
      </g>
    </g>
    <g id="Group_25" data-name="Group 25" transform="translate(1798.119 122.546) rotate(180)">
      <path id="Intersection_1-3" data-name="Intersection 1" d="M7.77,0,44.715,9.9l7.313,7.842L0,28.224Z" transform="translate(169.002 22.946)" fill="#70c1eb"/>
      <path id="Polygon_27-5" data-name="Polygon 27" d="M27.816,0,55.631,45.2H0Z" transform="translate(263.852 152.886) rotate(-133)" fill="#33759c"/>
      <path id="Polygon_25-5" data-name="Polygon 25" d="M27.816,0,55.631,45.2H0Z" transform="translate(225.912 112.199) rotate(-133)" fill="#aadff7"/>
      <path id="Polygon_29-5" data-name="Polygon 29" d="M27.816,0,55.631,45.2H0Z" transform="translate(301.793 193.572) rotate(-133)" fill="#0f507b"/>
      <path id="Polygon_24-5" data-name="Polygon 24" d="M27.816,0,55.631,45.2H0Z" transform="translate(202.059 20.344) rotate(47)" fill="#8dd8ff"/>
      <path id="Polygon_28-5" data-name="Polygon 28" d="M27.816,0,55.631,45.2H0Z" transform="translate(277.94 101.716) rotate(47)" fill="#2579b1"/>
      <path id="Polygon_30-5" data-name="Polygon 30" d="M27.816,0,55.631,45.2H0Z" transform="translate(315.88 142.402) rotate(47)" fill="#0b4f89"/>
      <path id="Polygon_26-5" data-name="Polygon 26" d="M27.816,0,55.631,45.2H0Z" transform="translate(239.999 61.03) rotate(47)" fill="#67b4e2"/>
      <g id="Group_14-3" data-name="Group 14" transform="translate(183.088 0) rotate(47)">
        <path id="Polygon_23-3" data-name="Polygon 23" d="M27.816,0,55.631,45.2H0Z" transform="translate(45.201 194.71) rotate(90)" fill="#70c1eb"/>
        <path id="Polygon_27-6" data-name="Polygon 27" d="M27.816,0,55.631,45.2H0Z" transform="translate(45.201 83.447) rotate(90)" fill="#33759c"/>
        <path id="Polygon_25-6" data-name="Polygon 25" d="M27.816,0,55.631,45.2H0Z" transform="translate(45.201 139.078) rotate(90)" fill="#aadff7"/>
        <path id="Polygon_29-6" data-name="Polygon 29" d="M27.816,0,55.631,45.2H0Z" transform="translate(45.201 27.816) rotate(90)" fill="#0f507b"/>
        <path id="Polygon_24-6" data-name="Polygon 24" d="M27.816,0,55.631,45.2H0Z" transform="translate(0.001 222.525) rotate(-90)" fill="#8dd8ff"/>
        <path id="Subtraction_5-3" data-name="Subtraction 5" d="M27.816,45.2l0-.005L0,0H27.816V45.2Z" transform="translate(45.202 222.525) rotate(90)" fill="#a7e3fd"/>
        <path id="Polygon_28-6" data-name="Polygon 28" d="M27.816,0,55.631,45.2H0Z" transform="translate(0.001 111.263) rotate(-90)" fill="#2579b1"/>
        <path id="Polygon_30-6" data-name="Polygon 30" d="M27.816,0,55.631,45.2H0Z" transform="translate(0.001 55.631) rotate(-90)" fill="#0b4f89"/>
        <path id="Polygon_26-6" data-name="Polygon 26" d="M27.816,0,55.631,45.2H0Z" transform="translate(0.001 166.894) rotate(-90)" fill="#67b4e2"/>
      </g>
    </g>
    <g id="Group_26" data-name="Group 26" transform="translate(1888.106 -227.798) rotate(90)">
      <path id="Intersection_1-4" data-name="Intersection 1" d="M7.77,0,44.715,9.9l7.313,7.842L0,28.224Z" transform="translate(169.002 22.946)" fill="#70c1eb"/>
      <path id="Polygon_27-7" data-name="Polygon 27" d="M27.816,0,55.631,45.2H0Z" transform="translate(263.852 152.886) rotate(-133)" fill="#33759c"/>
      <path id="Polygon_25-7" data-name="Polygon 25" d="M27.816,0,55.631,45.2H0Z" transform="translate(225.912 112.199) rotate(-133)" fill="#aadff7"/>
      <path id="Polygon_29-7" data-name="Polygon 29" d="M27.816,0,55.631,45.2H0Z" transform="translate(301.793 193.572) rotate(-133)" fill="#0f507b"/>
      <path id="Polygon_24-7" data-name="Polygon 24" d="M27.816,0,55.631,45.2H0Z" transform="translate(202.059 20.344) rotate(47)" fill="#8dd8ff"/>
      <path id="Polygon_28-7" data-name="Polygon 28" d="M27.816,0,55.631,45.2H0Z" transform="translate(277.94 101.716) rotate(47)" fill="#2579b1"/>
      <path id="Polygon_30-7" data-name="Polygon 30" d="M27.816,0,55.631,45.2H0Z" transform="translate(315.88 142.402) rotate(47)" fill="#0b4f89"/>
      <path id="Polygon_26-7" data-name="Polygon 26" d="M27.816,0,55.631,45.2H0Z" transform="translate(239.999 61.03) rotate(47)" fill="#67b4e2"/>
      <g id="Group_14-4" data-name="Group 14" transform="translate(183.088 0) rotate(47)">
        <path id="Polygon_23-4" data-name="Polygon 23" d="M27.816,0,55.631,45.2H0Z" transform="translate(45.201 194.71) rotate(90)" fill="#70c1eb"/>
        <path id="Polygon_27-8" data-name="Polygon 27" d="M27.816,0,55.631,45.2H0Z" transform="translate(45.201 83.447) rotate(90)" fill="#33759c"/>
        <path id="Polygon_25-8" data-name="Polygon 25" d="M27.816,0,55.631,45.2H0Z" transform="translate(45.201 139.078) rotate(90)" fill="#aadff7"/>
        <path id="Polygon_29-8" data-name="Polygon 29" d="M27.816,0,55.631,45.2H0Z" transform="translate(45.201 27.816) rotate(90)" fill="#0f507b"/>
        <path id="Polygon_24-8" data-name="Polygon 24" d="M27.816,0,55.631,45.2H0Z" transform="translate(0.001 222.525) rotate(-90)" fill="#8dd8ff"/>
        <path id="Subtraction_5-4" data-name="Subtraction 5" d="M27.816,45.2l0-.005L0,0H27.816V45.2Z" transform="translate(45.202 222.525) rotate(90)" fill="#a7e3fd"/>
        <path id="Polygon_28-8" data-name="Polygon 28" d="M27.816,0,55.631,45.2H0Z" transform="translate(0.001 111.263) rotate(-90)" fill="#2579b1"/>
        <path id="Polygon_30-8" data-name="Polygon 30" d="M27.816,0,55.631,45.2H0Z" transform="translate(0.001 55.631) rotate(-90)" fill="#0b4f89"/>
        <path id="Polygon_26-8" data-name="Polygon 26" d="M27.816,0,55.631,45.2H0Z" transform="translate(0.001 166.894) rotate(-90)" fill="#67b4e2"/>
      </g>
    </g>
  </g>
</svg>
