<svg width="571" height="517" viewBox="0 0 571 517" fill="none" xmlns="http://www.w3.org/2000/svg">
<path d="M527.445 18.895H391.541C386.998 18.895 383.315 22.5779 383.315 27.121C383.315 31.6641 386.998 35.347 391.541 35.347H527.445C531.988 35.347 535.671 31.6641 535.671 27.121C535.671 22.5779 531.988 18.895 527.445 18.895Z" fill="#F2F2F2"/>
<path d="M561.57 32.912H425.666C421.123 32.912 417.44 36.5949 417.44 41.138C417.44 45.6811 421.123 49.364 425.666 49.364H561.57C566.113 49.364 569.796 45.6811 569.796 41.138C569.796 36.5949 566.113 32.912 561.57 32.912Z" fill="#F2F2F2"/>
<path d="M503.673 45.101H367.769C363.226 45.101 359.543 48.7839 359.543 53.327C359.543 57.8701 363.226 61.553 367.769 61.553H503.673C508.216 61.553 511.899 57.8701 511.899 53.327C511.899 48.7839 508.216 45.101 503.673 45.101Z" fill="#F2F2F2"/>
<path d="M323.378 198.086H187.474C182.931 198.086 179.248 201.769 179.248 206.312C179.248 210.855 182.931 214.538 187.474 214.538H323.378C327.921 214.538 331.604 210.855 331.604 206.312C331.604 201.769 327.921 198.086 323.378 198.086Z" fill="#F2F2F2"/>
<path d="M350.948 211.486H215.044C210.501 211.486 206.818 215.169 206.818 219.712C206.818 224.255 210.501 227.938 215.044 227.938H350.948C355.491 227.938 359.174 224.255 359.174 219.712C359.174 215.169 355.491 211.486 350.948 211.486Z" fill="#F2F2F2"/>
<path d="M304.172 223.132H168.268C163.725 223.132 160.042 226.815 160.042 231.358C160.042 235.901 163.725 239.584 168.268 239.584H304.172C308.715 239.584 312.398 235.901 312.398 231.358C312.398 226.815 308.715 223.132 304.172 223.132Z" fill="#F2F2F2"/>
<g opacity="0.5">
<path opacity="0.5" d="M550.704 497.402C547.59 497.402 475.967 533.97 392.929 437.676C347.835 385.391 303.664 379.824 272.71 385.657C253.687 389.237 236.317 400.145 222.558 415.945C211.493 428.703 184.711 446.088 121.963 441.345C25.431 434.033 0 515.088 0 515.088H570.38C570.38 515.088 553.798 497.402 550.704 497.402Z" fill="url(#paint0_linear_2_65)"/>
</g>
<path d="M0.0300293 516.903C0.0300293 516.903 25.461 435.848 121.992 443.16C184.74 447.931 211.53 430.523 222.56 417.773C236.293 401.943 253.66 391.066 272.66 387.485C303.614 381.652 347.791 387.22 392.878 439.504C475.915 535.798 547.538 499.23 550.651 499.23C553.764 499.23 570.372 516.903 570.372 516.903H0.0300293Z" fill="#F2F2F2"/>
<path opacity="0.02" d="M0.0300293 516.903C0.0300293 516.903 25.461 435.848 121.992 443.16C184.74 447.931 211.53 430.523 222.56 417.773C236.293 401.943 253.66 391.066 272.66 387.485C303.614 381.652 347.791 387.22 392.878 439.504C475.915 535.798 547.538 499.23 550.651 499.23C553.764 499.23 570.372 516.903 570.372 516.903H0.0300293Z" fill="black"/>
<path d="M213.633 89.718H77.729C73.1859 89.718 69.503 93.4009 69.503 97.944C69.503 102.487 73.1859 106.17 77.729 106.17H213.633C218.176 106.17 221.859 102.487 221.859 97.944C221.859 93.4009 218.176 89.718 213.633 89.718Z" fill="#F2F2F2"/>
<path d="M227.859 103.118H91.955C87.4119 103.118 83.729 106.801 83.729 111.344C83.729 115.887 87.4119 119.57 91.955 119.57H227.859C232.402 119.57 236.085 115.887 236.085 111.344C236.085 106.801 232.402 103.118 227.859 103.118Z" fill="#F2F2F2"/>
<path d="M189.869 114.771H53.965C49.4219 114.771 45.739 118.454 45.739 122.997C45.739 127.54 49.4219 131.223 53.965 131.223H189.869C194.412 131.223 198.095 127.54 198.095 122.997C198.095 118.454 194.412 114.771 189.869 114.771Z" fill="#F2F2F2"/>
<g opacity="0.5">
<path opacity="0.5" d="M151.173 123.108C185.168 123.108 212.727 95.5493 212.727 61.554C212.727 27.5587 185.168 0 151.173 0C117.178 0 89.619 27.5587 89.619 61.554C89.619 95.5493 117.178 123.108 151.173 123.108Z" fill="url(#paint1_linear_2_65)"/>
</g>
<path d="M151.172 116.401C181.464 116.401 206.02 91.8447 206.02 61.553C206.02 31.2613 181.464 6.705 151.172 6.705C120.88 6.705 96.324 31.2613 96.324 61.553C96.324 91.8447 120.88 116.401 151.172 116.401Z" fill="#D637A8"/>
<path d="M150.333 424.948H102.622V460.393H150.333V424.948Z" fill="#8924BF"/>
<path d="M98.935 427.575L125.597 400.913C125.79 400.719 126.019 400.566 126.272 400.461C126.524 400.356 126.795 400.302 127.069 400.302C127.342 400.302 127.613 400.356 127.865 400.461C128.118 400.566 128.347 400.719 128.54 400.913L154.989 427.358C155.28 427.648 155.479 428.018 155.56 428.421C155.641 428.824 155.6 429.242 155.443 429.622C155.287 430.002 155.021 430.327 154.679 430.556C154.338 430.785 153.936 430.907 153.525 430.908L100.425 431.12C100.011 431.125 99.6055 431.007 99.2594 430.781C98.9133 430.554 98.6427 430.229 98.4823 429.848C98.3218 429.467 98.2788 429.046 98.3588 428.641C98.4387 428.235 98.638 427.862 98.931 427.57L98.935 427.575Z" fill="#6C63FF"/>
<path opacity="0.05" d="M98.935 427.575L125.597 400.913C125.79 400.719 126.019 400.566 126.272 400.461C126.524 400.356 126.795 400.302 127.069 400.302C127.342 400.302 127.613 400.356 127.865 400.461C128.118 400.566 128.347 400.719 128.54 400.913L154.989 427.358C155.28 427.648 155.479 428.018 155.56 428.421C155.641 428.824 155.6 429.242 155.443 429.622C155.287 430.002 155.021 430.327 154.679 430.556C154.338 430.785 153.936 430.907 153.525 430.908L100.425 431.12C100.011 431.125 99.6055 431.007 99.2594 430.781C98.9133 430.554 98.6427 430.229 98.4823 429.848C98.3218 429.467 98.2788 429.046 98.3588 428.641C98.4387 428.235 98.638 427.862 98.931 427.57L98.935 427.575Z" fill="#D637A8"/>
<path d="M124.233 444.404H125.189C126.617 444.404 127.987 444.971 128.997 445.981C130.007 446.991 130.574 448.361 130.574 449.789V460.408H118.848V449.789C118.848 448.361 119.415 446.991 120.425 445.981C121.435 444.971 122.805 444.404 124.233 444.404Z" fill="white"/>
<path d="M124.684 411.07C126.305 411.07 127.619 409.756 127.619 408.135C127.619 406.514 126.305 405.2 124.684 405.2C123.063 405.2 121.749 406.514 121.749 408.135C121.749 409.756 123.063 411.07 124.684 411.07Z" fill="white"/>
<path d="M118.069 429.476H106.873V438.002H118.069V429.476Z" fill="white"/>
<path d="M131.997 429.476H130.927V438.002H131.997V429.476Z" fill="#6C63FF"/>
<path d="M143.412 429.476H132.216V438.002H143.412V429.476Z" fill="white"/>
<path d="M137.955 429.476H136.885V438.002H137.955V429.476Z" fill="#6C63FF"/>
<g opacity="0.2">
<path opacity="0.2" d="M292.8 414.231H292.891C292.91 414.224 292.926 414.211 292.938 414.195C292.95 414.179 292.957 414.16 292.959 414.14C292.965 414.11 292.965 414.079 292.959 414.049V413.973C292.883 413.791 292.709 413.548 292.61 413.336L292.565 413.222C292.561 413.171 292.561 413.121 292.565 413.07V413.002L294.203 407.624L294.241 407.495C295.43 408.018 296.37 408.98 296.866 410.18C297.176 411.048 297.192 411.995 296.911 412.873L296.873 412.964H296.911V413.95H299.187C299.346 413.874 299.134 413.677 298.921 413.48L298.868 413.427L298.732 413.283C298.693 413.239 298.659 413.191 298.632 413.139L298.594 413.048V412.995H298.526V412.912C298.81 411.594 298.746 410.225 298.338 408.94C297.931 407.655 297.196 406.499 296.205 405.585C296.754 403.948 296.754 402.178 296.205 400.541C296.417 400.389 300.551 397.401 300.521 393.532C300.533 393.325 300.533 393.117 300.521 392.91C300.521 392.91 300.877 392.61 300.521 392.076V392.031H300.233C300.069 392.047 299.911 392.099 299.77 392.183C299.77 392.183 299.535 392.942 299.77 393.139H299.714C299.714 393.139 297.264 398.449 295.626 399.207L295.512 399.139V398.449C295.514 398.419 295.514 398.388 295.512 398.358C295.513 398.33 295.513 398.303 295.512 398.275C295.696 398.179 295.863 398.054 296.005 397.903C296.059 397.846 296.11 397.785 296.157 397.721L296.218 397.63L296.279 397.524L296.325 397.424C296.357 397.352 296.385 397.279 296.408 397.204V397.113V396.999V396.908V396.787C296.408 396.57 296.369 396.354 296.294 396.15C296.292 396.088 296.267 396.029 296.226 395.983L296.188 395.9L296.135 395.809C296.176 395.759 296.224 395.715 296.279 395.68C296.384 395.621 296.5 395.585 296.62 395.574H296.977C297.02 395.557 297.061 395.534 297.098 395.506C297.157 395.457 297.225 395.421 297.298 395.4H296.35L296.229 395.347C296.293 395.373 296.36 395.388 296.429 395.393H296.729L296.775 395.355V395.294H296.639C296.536 395.308 296.431 395.308 296.328 395.294H296.009L295.918 395.256C296.043 395.301 296.18 395.295 296.301 395.239C296.421 395.182 296.514 395.081 296.559 394.956C296.604 394.831 296.598 394.694 296.542 394.573C296.486 394.453 296.384 394.36 296.259 394.315L296.342 394.262C296.386 394.224 296.422 394.179 296.448 394.127C296.474 394.076 296.49 394.02 296.494 393.962C296.504 393.915 296.504 393.865 296.494 393.818L296.441 393.863H296.395C296.252 393.964 296.077 394.013 295.902 394H295.841C295.686 393.96 295.536 393.904 295.393 393.833L295.264 393.787H294.574C294.007 393.806 293.468 394.033 293.057 394.424C292.962 394.516 292.876 394.617 292.799 394.724C292.745 394.168 292.849 393.608 293.099 393.108H292.917L292.849 393.237C292.883 393.054 292.951 392.879 293.049 392.721H293.003C293.104 392.608 293.16 392.463 293.16 392.312C293.16 392.16 293.104 392.015 293.003 391.902C292.647 391.363 291.987 391.781 291.987 391.781C291.934 391.957 291.898 392.137 291.881 392.32L291.775 392.275C291.654 392.685 290.304 397.387 292.534 400.391C292.531 400.454 292.531 400.518 292.534 400.581V405.648L291.014 412.601L290.714 413.913L292.845 414.262L292.8 414.231ZM293.179 397.809C293.299 397.909 293.432 397.993 293.573 398.059C293.569 398.107 293.569 398.155 293.573 398.203V398.863L293.444 398.924C293.344 398.598 293.262 398.219 293.171 397.809H293.179Z" fill="url(#paint2_linear_2_65)"/>
</g>
<path d="M299.927 394.197C299.927 394.197 300.321 393.863 299.927 393.272C299.533 392.681 298.804 393.143 298.804 393.143C298.804 393.143 298.538 394 298.804 394.197C299.07 394.394 299.927 394.197 299.927 394.197Z" fill="#CA7070"/>
<path d="M296.179 410.832H297.999C297.992 410.918 298.005 411.005 298.035 411.086C298.065 411.167 298.112 411.241 298.173 411.302C298.416 411.583 298.932 411.924 298.681 412.061H296.181L296.179 410.832Z" fill="#00695C"/>
<path opacity="0.2" d="M297.918 411.302C297.857 411.241 297.81 411.167 297.78 411.086C297.75 411.005 297.737 410.918 297.744 410.832H297.873C297.866 410.918 297.879 411.005 297.909 411.086C297.939 411.167 297.986 411.241 298.047 411.302C298.29 411.583 298.806 411.924 298.555 412.061H298.426C298.654 411.924 298.161 411.583 297.918 411.302Z" fill="white"/>
<path d="M290.7 410.46L292.429 410.76C292.382 410.963 292.409 411.175 292.505 411.36C292.695 411.747 293.112 412.247 292.862 412.354L290.397 411.954L290.7 410.46Z" fill="#00695C"/>
<path d="M291.428 393.101C291.428 393.101 289.479 399.253 292.748 402.658L293.696 401.9C293.696 401.9 291.762 395.187 292.846 393.609C290.935 393.01 291.428 393.101 291.428 393.101Z" fill="#00695C"/>
<path d="M292.785 393.943C292.785 393.943 293.179 393.609 292.785 393.018C292.391 392.427 291.662 392.889 291.662 392.889C291.662 392.889 291.397 393.746 291.662 393.943C291.927 394.14 292.785 393.943 292.785 393.943Z" fill="#CA7070"/>
<path opacity="0.2" d="M292.332 411.333C292.236 411.148 292.209 410.936 292.256 410.733L290.678 410.475L292.407 410.763C292.36 410.966 292.387 411.178 292.483 411.363C292.673 411.75 293.09 412.25 292.839 412.357H292.733C292.901 412.175 292.514 411.705 292.332 411.333Z" fill="white"/>
<path d="M294.086 401.555H294.087C294.598 401.555 295.012 401.141 295.012 400.63V399.734C295.012 399.223 294.598 398.809 294.087 398.809H294.086C293.575 398.809 293.161 399.223 293.161 399.734V400.63C293.161 401.141 293.575 401.555 294.086 401.555Z" fill="#CA7070"/>
<path opacity="0.2" d="M293.446 402.278C293.446 402.278 291.535 395.649 292.574 394.018H292.774C291.689 395.596 293.624 402.309 293.624 402.309L292.676 403.067L292.593 402.976L293.446 402.278Z" fill="white"/>
<path d="M294.049 399.862C295.18 399.862 296.097 398.945 296.097 397.814C296.097 396.683 295.18 395.766 294.049 395.766C292.918 395.766 292.001 396.683 292.001 397.814C292.001 398.945 292.918 399.862 294.049 399.862Z" fill="#CA7070"/>
<path opacity="0.2" d="M294.634 400.66V399.76C294.641 399.694 294.641 399.626 294.634 399.56C295.035 399.355 295.356 399.024 295.55 398.618C295.744 398.211 295.798 397.753 295.705 397.313C295.611 396.872 295.376 396.475 295.034 396.182C294.693 395.889 294.264 395.717 293.815 395.692H293.929C294.388 395.692 294.834 395.846 295.196 396.129C295.557 396.413 295.812 396.81 295.921 397.256C296.029 397.702 295.985 398.172 295.794 398.59C295.604 399.008 295.278 399.349 294.87 399.56C294.877 399.626 294.877 399.694 294.87 399.76V400.66C294.87 400.905 294.773 401.141 294.599 401.314C294.426 401.488 294.19 401.585 293.945 401.585H293.831C294.054 401.554 294.258 401.444 294.405 401.273C294.553 401.103 294.633 400.885 294.631 400.66H294.634Z" fill="white"/>
<path d="M291.94 407.699C291.94 407.699 295.892 408.147 296.04 407.699C296.659 405.876 296.659 403.901 296.04 402.078C296.04 401.809 295.987 401.542 295.884 401.294C295.781 401.045 295.63 400.819 295.439 400.629C295.249 400.439 295.023 400.288 294.774 400.185C294.526 400.082 294.259 400.03 293.99 400.03C293.447 400.03 292.926 400.246 292.542 400.63C292.158 401.014 291.942 401.535 291.942 402.078L291.94 407.699Z" fill="#00695C"/>
<path d="M291.891 407.355L290.108 415.547H291.891L293.742 409.479C295.05 410.069 296.087 411.131 296.647 412.452C297.028 413.45 297.028 414.554 296.647 415.552H298.566V415.461C298.883 414.001 298.81 412.483 298.354 411.06C297.899 409.637 297.078 408.358 295.972 407.353" fill="#263238"/>
<path opacity="0.2" d="M295.633 407.698C296.252 405.875 296.252 403.9 295.633 402.077C295.632 401.557 295.433 401.057 295.077 400.678C294.72 400.299 294.233 400.07 293.714 400.037H293.843C294.386 400.037 294.907 400.253 295.291 400.637C295.675 401.021 295.891 401.542 295.891 402.085C296.51 403.907 296.51 405.883 295.891 407.705C295.838 407.864 295.299 407.905 294.624 407.905C295.208 407.887 295.633 407.835 295.633 407.698Z" fill="white"/>
<path d="M295.552 402.306C295.552 402.306 300.862 398.606 300.308 393.917H299.125C299.125 393.917 296.281 400.061 294.468 400.66C292.655 401.259 295.552 402.306 295.552 402.306Z" fill="#00695C"/>
<g opacity="0.2">
<path opacity="0.2" d="M293.592 409.607L291.779 415.577H291.514L293.365 409.509L293.592 409.607Z" fill="white"/>
<path opacity="0.2" d="M295.61 407.384H295.875C296.981 408.389 297.802 409.668 298.258 411.091C298.713 412.514 298.786 414.033 298.469 415.493V415.584H298.204V415.494C298.521 414.033 298.448 412.515 297.993 411.092C297.538 409.668 296.716 408.389 295.61 407.384Z" fill="white"/>
</g>
<path opacity="0.2" d="M300 393.96H300.2C300.731 398.66 295.444 402.349 295.444 402.349L295.315 402.296C295.904 401.86 300.492 398.352 300 393.96Z" fill="white"/>
<path d="M295.619 396.92C295.506 397.185 295.427 397.462 295.384 397.747C295.331 398.038 295.221 398.315 295.059 398.563C294.898 398.81 294.688 399.023 294.443 399.188C294.16 399.341 293.846 399.427 293.525 399.438C293.283 399.468 293.037 399.447 292.803 399.377C292.569 399.306 292.352 399.187 292.167 399.028C291.952 398.795 291.808 398.506 291.75 398.194C291.648 397.73 291.664 397.249 291.797 396.793C291.929 396.337 292.174 395.922 292.509 395.585C292.849 395.256 293.275 395.03 293.738 394.932C294.201 394.834 294.682 394.868 295.126 395.031C295.286 395.109 295.453 395.17 295.626 395.213C295.763 395.24 295.904 395.231 296.036 395.189C296.169 395.146 296.288 395.071 296.384 394.97C296.406 395.039 296.411 395.112 296.399 395.183C296.387 395.254 296.358 395.321 296.315 395.378C296.272 395.436 296.216 395.483 296.152 395.515C296.087 395.547 296.016 395.563 295.944 395.562C296.095 395.635 296.26 395.677 296.428 395.686C296.596 395.695 296.764 395.671 296.922 395.615C296.833 395.804 296.675 395.952 296.481 396.029C296.286 396.107 296.07 396.108 295.875 396.032C296.247 396.198 296.651 396.281 297.058 396.275C296.975 396.275 296.808 396.434 296.702 396.465C296.571 396.476 296.439 396.476 296.308 396.465C296.162 396.466 296.018 396.51 295.896 396.591C295.774 396.671 295.678 396.786 295.619 396.92Z" fill="#263238"/>
<g opacity="0.2">
<path opacity="0.2" d="M295.775 395.57C295.927 395.642 296.092 395.683 296.26 395.691C296.041 395.706 295.821 395.665 295.623 395.57C295.687 395.57 295.75 395.557 295.809 395.532C295.868 395.506 295.921 395.469 295.964 395.422C296.008 395.375 296.041 395.319 296.062 395.259C296.083 395.198 296.091 395.134 296.086 395.07L296.192 394.979C296.213 395.046 296.219 395.117 296.208 395.186C296.197 395.255 296.171 395.321 296.13 395.378C296.09 395.436 296.037 395.483 295.975 395.516C295.914 395.55 295.845 395.568 295.775 395.571V395.57Z" fill="white"/>
<path opacity="0.2" d="M295.365 395.214C295.192 395.171 295.025 395.11 294.865 395.032C294.623 394.936 294.366 394.882 294.106 394.873C294.42 394.862 294.732 394.916 295.024 395.032C295.184 395.11 295.351 395.171 295.524 395.214H295.592C295.517 395.225 295.44 395.225 295.365 395.214Z" fill="white"/>
<path opacity="0.2" d="M296.382 396.465C296.488 396.465 296.655 396.275 296.739 396.275C296.332 396.281 295.928 396.198 295.556 396.032C295.64 396.065 295.73 396.083 295.821 396.085C296.157 396.213 296.515 396.275 296.875 396.267C296.792 396.267 296.625 396.426 296.518 396.457C296.428 396.471 296.335 396.471 296.245 396.457L296.382 396.465Z" fill="white"/>
<path opacity="0.2" d="M293.272 399.439C293.593 399.428 293.907 399.342 294.19 399.189C294.435 399.024 294.645 398.811 294.806 398.564C294.968 398.316 295.078 398.039 295.131 397.748C295.174 397.463 295.253 397.186 295.366 396.921C295.426 396.799 295.517 396.695 295.63 396.62C295.744 396.546 295.875 396.503 296.011 396.496H296.14C296.004 396.503 295.873 396.546 295.759 396.62C295.646 396.695 295.555 396.799 295.495 396.921C295.382 397.186 295.303 397.463 295.26 397.748C295.207 398.039 295.097 398.316 294.935 398.564C294.774 398.811 294.564 399.024 294.319 399.189C294.036 399.342 293.722 399.428 293.401 399.439H293.272Z" fill="white"/>
<path opacity="0.2" d="M295.934 396.094C296.074 396.084 296.209 396.04 296.327 395.964C296.445 395.889 296.542 395.785 296.609 395.662L296.761 395.617C296.689 395.772 296.571 395.901 296.423 395.986C296.275 396.072 296.104 396.11 295.934 396.095V396.094Z" fill="white"/>
</g>
<path opacity="0.2" d="M299.764 394.196C299.764 394.196 300.158 393.862 299.764 393.271C299.712 393.185 299.64 393.113 299.554 393.061C299.468 393.009 299.371 392.978 299.271 392.971C299.392 392.957 299.515 392.978 299.626 393.031C299.736 393.084 299.828 393.167 299.893 393.271C300.287 393.863 299.893 394.196 299.893 394.196C299.644 394.251 299.39 394.278 299.135 394.279C299.347 394.268 299.557 394.241 299.764 394.196Z" fill="white"/>
<path d="M307.3 386.825C307.3 386.825 305.351 392.977 308.62 396.382L309.568 395.623C309.568 395.623 307.634 388.91 308.718 387.332C306.807 386.734 307.3 386.825 307.3 386.825Z" fill="#FF5252"/>
<path d="M308.668 387.67C308.668 387.67 309.062 387.336 308.668 386.745C308.274 386.154 307.545 386.616 307.545 386.616C307.545 386.616 307.279 387.473 307.545 387.67C307.811 387.867 308.668 387.67 308.668 387.67Z" fill="#F6B9AD"/>
<path d="M309.963 395.282H309.964C310.475 395.282 310.889 394.868 310.889 394.357V393.461C310.889 392.95 310.475 392.536 309.964 392.536H309.963C309.452 392.536 309.038 392.95 309.038 393.461V394.357C309.038 394.868 309.452 395.282 309.963 395.282Z" fill="#F6B9AD"/>
<path opacity="0.2" d="M309.325 396.031C309.325 396.031 307.414 389.402 308.453 387.771H308.653C307.568 389.349 309.502 396.062 309.502 396.062L308.554 396.82L308.471 396.729L309.325 396.031Z" fill="white"/>
<path d="M309.916 393.583C311.047 393.583 311.964 392.666 311.964 391.535C311.964 390.404 311.047 389.487 309.916 389.487C308.785 389.487 307.868 390.404 307.868 391.535C307.868 392.666 308.785 393.583 309.916 393.583Z" fill="#F6B9AD"/>
<path opacity="0.2" d="M310.509 394.381V393.494C310.516 393.428 310.516 393.36 310.509 393.294C310.91 393.089 311.231 392.758 311.425 392.352C311.618 391.945 311.673 391.487 311.58 391.047C311.486 390.606 311.251 390.209 310.909 389.916C310.568 389.623 310.139 389.451 309.69 389.426H309.804C310.263 389.426 310.709 389.58 311.07 389.864C311.431 390.147 311.687 390.544 311.795 390.99C311.903 391.437 311.859 391.906 311.668 392.324C311.478 392.742 311.152 393.083 310.744 393.294C310.751 393.36 310.751 393.428 310.744 393.494V394.394C310.744 394.639 310.647 394.875 310.473 395.048C310.3 395.222 310.064 395.319 309.819 395.319H309.705C309.929 395.288 310.135 395.177 310.282 395.005C310.43 394.833 310.509 394.613 310.505 394.386L310.509 394.381Z" fill="white"/>
<path d="M307.829 401.421C307.829 401.421 311.781 401.869 311.929 401.421C312.399 399.98 311.17 398.387 311.77 397.628C311.955 397.36 312.067 397.048 312.095 396.724C312.123 396.399 312.066 396.073 311.929 395.777C311.929 395.234 311.713 394.713 311.329 394.329C310.945 393.945 310.424 393.729 309.881 393.729C309.338 393.729 308.817 393.945 308.433 394.329C308.049 394.713 307.833 395.234 307.833 395.777L307.829 401.421Z" fill="#FF5252"/>
<path opacity="0.2" d="M311.644 397.66C311.829 397.392 311.941 397.08 311.969 396.756C311.997 396.431 311.94 396.105 311.803 395.809C311.803 395.266 311.587 394.745 311.203 394.361C310.819 393.977 310.298 393.761 309.755 393.761H309.626C310.145 393.794 310.632 394.023 310.988 394.402C311.344 394.78 311.543 395.28 311.544 395.8C311.681 396.096 311.738 396.422 311.71 396.747C311.682 397.071 311.57 397.383 311.385 397.651C310.748 398.41 312.015 399.972 311.544 401.444C311.498 401.581 311.089 401.634 310.55 401.644C311.217 401.644 311.756 401.606 311.809 401.444C312.271 399.98 311.005 398.417 311.644 397.66Z" fill="white"/>
<path d="M311.052 400.955C312.576 403.365 313.169 406.248 312.721 409.064V409.155H311.492C311.738 408.136 311.738 407.074 311.492 406.055C311.259 404.868 310.594 403.809 309.626 403.082L308.435 409.15H307.29L308.435 400.958L311.052 400.955Z" fill="#F6B9AD"/>
<path d="M316.915 389.961C316.915 389.961 317.393 389.761 317.188 389.074C316.983 388.387 316.156 388.619 316.156 388.619C316.156 388.619 315.648 389.378 315.845 389.628C316.042 389.878 316.915 389.961 316.915 389.961Z" fill="#F6B9AD"/>
<path d="M310.406 396.363C310.406 396.363 316.542 394.376 317.415 389.734L316.277 389.385C316.277 389.385 311.726 394.429 309.845 394.467C307.964 394.505 310.406 396.363 310.406 396.363Z" fill="#FF5252"/>
<path opacity="0.2" d="M317.126 389.735L317.316 389.796C316.444 394.438 310.307 396.425 310.307 396.425L310.201 396.342C310.921 396.084 316.315 394.066 317.126 389.735Z" fill="white"/>
<g opacity="0.2">
<path opacity="0.2" d="M309.287 403.071L308.096 409.139H308.361L309.514 403.239C309.441 403.18 309.365 403.124 309.286 403.072L309.287 403.071Z" fill="white"/>
<path opacity="0.2" d="M310.994 400.955H310.729C312.253 403.365 312.846 406.248 312.398 409.064V409.155H312.641V409.064C313.096 406.251 312.51 403.368 310.994 400.955Z" fill="white"/>
</g>
<path opacity="0.2" d="M316.756 389.894C316.756 389.894 317.234 389.694 317.029 389.007C317.005 388.91 316.958 388.82 316.892 388.745C316.826 388.67 316.743 388.612 316.65 388.575C316.771 388.597 316.882 388.653 316.972 388.736C317.062 388.819 317.127 388.927 317.158 389.045C317.358 389.728 316.885 389.932 316.885 389.932C316.628 389.911 316.373 389.863 316.126 389.788C316.333 389.84 316.543 389.876 316.756 389.894Z" fill="white"/>
<path d="M307.865 400.946L305.377 406.195C306.831 406.267 308.279 406.442 309.708 406.718C312.461 407.241 313.774 405.96 313.774 405.96L312.007 400.946H307.865Z" fill="#263238"/>
<path d="M308.737 409.025C308.737 409.025 310.049 409.29 309.784 409.783H307.425L307.554 409.025H308.737Z" fill="#FF5252"/>
<path d="M312.307 409.025C312.307 409.025 313.619 409.29 313.354 409.783H310.995L311.124 409.025H312.307Z" fill="#FF5252"/>
<path d="M312.025 389.772C312.025 389.772 308.877 394.232 310.318 396.072L304.683 395.942C304.683 395.942 306.253 385.835 312.025 389.772Z" fill="#FCCC63"/>
<path opacity="0.2" d="M312.026 389.772C311.38 389.292 310.623 388.982 309.826 388.872C310.368 389.046 310.879 389.302 311.343 389.631C311.343 389.631 308.195 394.091 309.636 395.931L304.675 395.817V395.931L310.311 396.06C308.878 394.237 312.026 389.772 312.026 389.772Z" fill="white"/>
<path opacity="0.2" d="M311.636 400.945H311.242L313.017 405.928C312.283 406.532 311.358 406.854 310.408 406.838C311.5 406.945 312.59 406.618 313.442 405.928L311.636 400.945Z" fill="white"/>
<path opacity="0.2" d="M308.666 409.025H308.401C308.401 409.025 309.713 409.29 309.448 409.783H309.714C309.979 409.283 308.666 409.025 308.666 409.025Z" fill="white"/>
<path opacity="0.2" d="M312.236 409.025H311.971C311.971 409.025 313.283 409.29 313.018 409.783H313.283C313.549 409.283 312.236 409.025 312.236 409.025Z" fill="white"/>
<path d="M450.959 292.045L443.647 251.206L466.804 250.076V292.045H482.649L498.494 246.945" stroke="#B3B3B3" stroke-miterlimit="10"/>
<path d="M475.945 285.872H457.665C445.21 285.872 435.114 295.968 435.114 308.423C435.114 320.877 445.21 330.973 457.665 330.973H475.945C488.4 330.973 498.496 320.877 498.496 308.423C498.496 295.968 488.4 285.872 475.945 285.872Z" fill="#8924BF"/>
<path opacity="0.05" d="M476.559 286.442H458.279C452.304 286.46 446.578 288.842 442.353 293.067C438.128 297.292 435.746 303.018 435.728 308.993C435.718 309.499 435.738 310.006 435.789 310.51C436.191 304.814 438.733 299.48 442.905 295.58C447.076 291.68 452.568 289.502 458.279 289.484H476.559C482.27 289.502 487.762 291.68 491.933 295.58C496.105 299.48 498.647 304.814 499.049 310.51C499.049 310.01 499.11 309.501 499.11 308.993C499.092 303.018 496.71 297.292 492.485 293.067C488.26 288.842 482.534 286.46 476.559 286.442Z" fill="black"/>
<path d="M481.406 299.341L475.421 294.641L460.948 312.974L453.166 306.944L448.296 313.133L459.613 321.78L462.42 324.033L481.406 299.341Z" fill="url(#paint3_linear_2_65)"/>
<path d="M480.966 299.238L475.535 295.081L461.16 313.832L453.174 307.701L449.01 313.132L459.71 321.324L462.456 323.38L480.966 299.238Z" fill="#D637A8"/>
<path d="M562.954 172.311C562.954 224.391 519.446 266.611 473.123 266.611C426.8 266.611 379.323 224.392 379.323 172.311C379.323 120.23 426.798 78.011 473.129 78.011C519.46 78.011 562.954 120.231 562.954 172.311Z" fill="url(#paint4_linear_2_65)"/>
<path d="M558.653 172.161C558.653 221.806 517.185 262.045 473.024 262.045C428.863 262.045 383.61 221.807 383.61 172.161C383.61 122.515 428.88 82.307 473.031 82.307C517.182 82.307 558.653 122.507 558.653 172.161Z" fill="#8924BF"/>
<path d="M479.176 259.114H459.31V266.054H479.176V259.114Z" fill="#6C63FF"/>
<g opacity="0.2">
<path opacity="0.2" d="M473.031 81.987C471.977 81.987 470.931 81.987 469.876 82.063C512.831 83.921 552.349 123.41 552.349 171.871C552.349 220.332 512.83 259.821 469.906 261.679C470.96 261.725 472.015 261.755 473.061 261.755C517.214 261.755 558.69 221.516 558.69 171.871C558.69 122.226 517.185 81.987 473.031 81.987Z" fill="black"/>
</g>
<g opacity="0.2">
<path opacity="0.2" d="M388.675 172.16C388.675 123.228 432.669 83.414 476.193 82.306H474.304C430.151 82.306 384.89 122.545 384.89 172.19C384.89 221.835 430.143 262.074 474.296 262.074H476.185C432.641 260.891 388.675 221.114 388.675 172.16Z" fill="white"/>
</g>
<path d="M498.738 243.78H441.652V262.386H498.738V243.78Z" fill="#6C63FF"/>
<path opacity="0.2" d="M458.774 88.879C458.774 88.879 390.974 166.384 458.774 255.555L481.165 255.479C481.165 255.479 419.354 181.812 478.328 83.296L467.307 85.807L458.774 88.879Z" fill="#D637A8"/>
<path opacity="0.2" d="M500.626 87.704C500.626 87.704 568.426 166.392 500.626 255.564L478.235 255.488C478.235 255.488 540.046 181.153 481.072 82.66L492.108 84.867L500.626 87.704Z" fill="#D637A8"/>
<defs>
<linearGradient id="paint0_linear_2_65" x1="285.19" y1="515.088" x2="285.19" y2="383.807" gradientUnits="userSpaceOnUse">
<stop stop-color="#808080" stop-opacity="0.251"/>
<stop offset="0.54" stop-color="#808080" stop-opacity="0.122"/>
<stop offset="1" stop-color="#808080" stop-opacity="0.102"/>
</linearGradient>
<linearGradient id="paint1_linear_2_65" x1="151.173" y1="123.108" x2="151.173" y2="0" gradientUnits="userSpaceOnUse">
<stop stop-color="#808080" stop-opacity="0.251"/>
<stop offset="0.54" stop-color="#808080" stop-opacity="0.122"/>
<stop offset="1" stop-color="#808080" stop-opacity="0.102"/>
</linearGradient>
<linearGradient id="paint2_linear_2_65" x1="1989.69" y1="414.239" x2="1989.69" y2="391.581" gradientUnits="userSpaceOnUse">
<stop stop-color="#808080" stop-opacity="0.251"/>
<stop offset="0.54" stop-color="#808080" stop-opacity="0.122"/>
<stop offset="1" stop-color="#808080" stop-opacity="0.102"/>
</linearGradient>
<linearGradient id="paint3_linear_2_65" x1="585.173" y1="394.868" x2="585.173" y2="365.446" gradientUnits="userSpaceOnUse">
<stop stop-opacity="0.122"/>
<stop offset="0.55" stop-opacity="0.09"/>
<stop offset="1" stop-opacity="0.02"/>
</linearGradient>
<linearGradient id="paint4_linear_2_65" x1="471.138" y1="266.611" x2="471.138" y2="78.011" gradientUnits="userSpaceOnUse">
<stop stop-color="#808080" stop-opacity="0.251"/>
<stop offset="0.54" stop-color="#808080" stop-opacity="0.122"/>
<stop offset="1" stop-color="#808080" stop-opacity="0.102"/>
</linearGradient>
</defs>
</svg>
