<?xml version="1.0" encoding="UTF-8" standalone="no"?>
<!DOCTYPE svg PUBLIC "-//W3C//DTD SVG 1.1//EN" "http://www.w3.org/Graphics/SVG/1.1/DTD/svg11.dtd">
<svg width="100%" height="100%" viewBox="0 0 500 500" version="1.1" xmlns="http://www.w3.org/2000/svg" xml:space="preserve" style="fill-rule:evenodd;clip-rule:evenodd;stroke-linejoin:round;stroke-miterlimit:1.41421;" fill="white">
    <g id="Icon-Close-O" transform="matrix(14.7667,0,0,14.7667,-1.03367,-1.03367)">
        <path id="Fill-52" d="M17,33.93C7.665,33.93 0.07,26.335 0.07,17C0.07,7.665 7.665,0.07 17,0.07C26.335,0.07 33.93,7.665 33.93,17C33.93,26.335 26.335,33.93 17,33.93ZM17,1.93C8.69,1.93 1.93,8.69 1.93,17C1.93,25.31 8.69,32.07 17,32.07C25.31,32.07 32.07,25.31 32.07,17C32.07,8.69 25.31,1.93 17,1.93Z"/>
        <path id="Fill-53" d="M9.657,25.658L8.343,24.342L24.343,8.342L25.657,9.658L9.657,25.658"/>
        <path id="Fill-54" d="M24.343,25.658L8.343,9.658L9.657,8.342L25.657,24.342L24.343,25.658"/>
    </g>
</svg>
