<svg width="15" height="41" viewBox="0 0 15 41" fill="none" xmlns="http://www.w3.org/2000/svg">
    <path d="M1.5625 34.1091H3.125V22.768H1.5625C0.699531 22.768 0 22.065 0 21.1978V17.4474C0 16.5802 0.699531 15.8772 1.5625 15.8772H10.3125C11.1755 15.8772 11.875 16.5802 11.875 17.4474V34.1091H13.4375C14.3005 34.1091 15 34.812 15 35.6792V39.4296C15 40.2968 14.3005 40.9998 13.4375 40.9998H1.5625C0.699531 40.9998 0 40.2968 0 39.4296V35.6792C0 34.812 0.699531 34.1091 1.5625 34.1091ZM7.5 0.803711C4.39336 0.803711 1.875 3.33441 1.875 6.45628C1.875 9.57815 4.39336 12.1089 7.5 12.1089C10.6066 12.1089 13.125 9.57815 13.125 6.45628C13.125 3.33441 10.6066 0.803711 7.5 0.803711Z" fill="white"/>
</svg>
