<svg id="SvgjsSvg1011" width="288" height="288" xmlns="http://www.w3.org/2000/svg" version="1.1" xmlns:xlink="http://www.w3.org/1999/xlink" xmlns:svgjs="http://svgjs.com/svgjs"><defs id="SvgjsDefs1012"></defs><g id="SvgjsG1013"><svg xmlns="http://www.w3.org/2000/svg" width="288" height="288" enable-background="new 0 0 512 512" viewBox="0 0 512 512"><path d="M191.318 354.527c4.141 0 7.498-3.357 7.498-7.498s-3.356-7.498-7.498-7.498h-61.847c-4.141 0-7.498 3.357-7.498 7.498s3.356 7.498 7.498 7.498zM109.976 376.763c0 4.141 3.357 7.498 7.498 7.498h98.388c4.141 0 7.498-3.357 7.498-7.498s-3.356-7.498-7.498-7.498h-98.388c-4.141.001-7.498 3.358-7.498 7.498zM395.854 419.605v-71.282c0-4.141-3.356-7.498-7.498-7.498s-7.498 3.357-7.498 7.498v71.282c0 4.141 3.356 7.498 7.498 7.498s7.498-3.356 7.498-7.498zM431.512 419.605v-71.282c0-4.141-3.356-7.498-7.498-7.498-4.141 0-7.498 3.357-7.498 7.498v71.282c0 4.141 3.356 7.498 7.498 7.498 4.141.001 7.498-3.356 7.498-7.498zM467.171 419.605v-71.282c0-4.141-3.356-7.498-7.498-7.498s-7.498 3.357-7.498 7.498v71.282c0 4.141 3.356 7.498 7.498 7.498 4.141.001 7.498-3.356 7.498-7.498z" fill="#ff8066" class="color000 svgShape"></path><path d="m495.356 268.025h-33.74l17.773-103.534c.072-.419.108-.844.108-1.269 0-13.859-11.275-25.135-25.135-25.135h-15.389c-4.141 0-7.498 3.357-7.498 7.498s3.356 7.498 7.498 7.498h15.389c5.406 0 9.836 4.252 10.124 9.586l-18.085 105.356h-1.127v-8.998c0-11.723-9.537-21.261-21.261-21.261-11.722 0-21.26 9.537-21.26 21.261v8.998h-50.082c-9.177 0-16.644 7.467-16.644 16.644v22.136c0 8 5.674 14.696 13.208 16.283v25.235c0 4.141 3.356 7.498 7.498 7.498s7.498-3.357 7.498-7.498v-24.873h119.563v108.896c0 6.691-5.444 12.134-12.134 12.134h-95.295c-6.691 0-12.135-5.443-12.135-12.134v-49.222c0-4.141-3.356-7.498-7.498-7.498s-7.498 3.357-7.498 7.498v32.172h-283.003c1.751-2.519 3.301-5.346 4.636-8.474 1.557-3.646 2.698-7.565 3.486-11.981l41.318-232.809c.593-5.101 4.921-8.947 10.07-8.947h278.562c4.141 0 7.498-3.357 7.498-7.498s-3.356-7.498-7.498-7.498h-4.513v-15.365c0-13.859-11.275-25.135-25.135-25.135h-90.495l-12.679-31.985c-3.148-7.945-10.705-13.078-19.251-13.078h-199.457c-11.419 0-20.708 9.289-20.708 20.708v18.642c0 3.149-2.563 5.712-5.712 5.712h-1.219c-13.859-.001-25.134 11.275-25.134 25.134v270.535c0 20.42 16.613 37.033 37.033 37.033h312.204v2.055c0 14.96 12.17 27.13 27.13 27.13h95.295c14.96 0 27.13-12.17 27.13-27.13v-109.256c7.534-1.588 13.208-8.284 13.208-16.283v-22.136c0-9.178-7.467-16.645-16.644-16.645zm-243.126-200.504c2.358 0 4.442 1.416 5.31 3.607l10.488 26.459h-86.07c-2.358 0-4.442-1.416-5.31-3.607l-10.488-26.459zm-195.154 333.41c-4.185 9.799-10.552 14.363-20.038 14.364h-.005c-12.151 0-22.037-9.886-22.037-22.037v-270.536c0-5.591 4.549-10.139 10.139-10.139h1.219c11.419 0 20.708-9.289 20.708-20.708v-18.642c0-3.15 2.563-5.712 5.712-5.712h93.375c2.358 0 4.442 1.416 5.31 3.607l11.249 28.377c3.149 7.944 10.705 13.078 19.251 13.078h192.697c5.59 0 10.139 4.548 10.139 10.139v15.365h-259.054c-12.762 0-23.495 9.549-24.967 22.214l-41.182 231.902c-.587 3.283-1.41 6.139-2.516 8.728zm360.674-141.904c0-3.455 2.81-6.265 6.264-6.265s6.265 2.81 6.265 6.265v8.998h-12.529zm79.254 47.778c0 .909-.739 1.648-1.648 1.648h-142.684c-.909 0-1.648-.74-1.648-1.648v-22.136c0-.909.739-1.648 1.648-1.648h142.684c.909 0 1.648.74 1.648 1.648z" fill="#ff8066" class="color000 svgShape"></path></svg></g></svg>