<svg height="445pt" viewBox="0 -13 445.94351 445" width="445pt" xmlns="http://www.w3.org/2000/svg"><path d="m396.476562 204.585938c-2.730468-2.730469-7.164062-2.730469-9.898437 0l-12.578125 12.582031v-74.734375c-.03125-26.070313-21.160156-47.195313-47.230469-47.222656h-2.101562v-1.1875c-.027344-26.070313-21.148438-47.199219-47.21875-47.230469h-75.488281c-.859376 0-1.679688-.359375-2.257813-.996094l-27.386719-29.957031c-8.953125-9.78125-21.597656-15.355469-34.855468-15.367188h-90.242188c-26.066406.027344-47.1875 21.152344-47.21875 47.21875v263.570313c.03125 26.066406 21.152344 47.191406 47.21875 47.21875h198.773438l-17.578126 52.730469c-.835937 2.515624-.183593 5.289062 1.691407 7.164062s4.648437 2.527344 7.164062 1.691406l71.125-23.707031c.046875-.019531.089844-.039063.136719-.058594.191406-.066406.378906-.144531.566406-.230469.074219-.035156.148438-.066406.226563-.105468.199219-.097656.390625-.207032.574219-.324219.042968-.027344.085937-.050781.128906-.078125.222656-.148438.4375-.308594.644531-.480469.054687-.042969.101563-.09375.15625-.140625.101563-.089844.199219-.175781.300781-.273437l132.765625-132.765625c2.734375-2.730469 2.734375-7.164063 0-9.898438zm-90.296874 175.230468-18.757813-18.757812-18.757813-18.753906 96.785157-96.785157 37.515625 37.515625zm-258.960938-35.335937c-18.335938-.019531-33.199219-14.878907-33.21875-33.21875v-263.570313c.019531-18.339844 14.882812-33.199218 33.21875-33.21875h90.242188c9.328124.007813 18.222656 3.929688 24.523437 10.8125l27.375 29.945313c3.234375 3.542969 7.804687 5.5625 12.601563 5.5625h75.488281c18.34375.023437 33.203125 14.886719 33.222656 33.230469v1.1875h-178.773437c-26.066407.03125-47.1875 21.152343-47.21875 47.222656v168.828125c-.023438 18.339843-14.890626 33.203125-33.230469 33.21875zm37.757812 0c8.78125-8.824219 13.707032-20.769531 13.699219-33.21875v-168.828125c.023438-18.339844 14.882813-33.203125 33.222657-33.222656h194.867187c18.34375.019531 33.207031 14.878906 33.230469 33.222656v88.734375l-106.183594 106.183593c-.089844.09375-.175781.195313-.261719.292969-.054687.058594-.105469.113281-.15625.171875-.175781.210938-.34375.429688-.492187.660156-.148438.230469-.28125.46875-.398438.714844-.027344.054688-.054687.109375-.078125.164063-.09375.203125-.179687.414062-.253906.625-.015625.039062-.03125.070312-.042969.101562l-1.464844 4.394531zm161.148438 57.875 15.699219-47.097657 31.398437 31.398438zm166.738281-129.222657-37.515625-37.515624 16.179688-16.179688 37.511718 37.515625zm0 0"/></svg>